<svg viewBox="0 0 512 512" xmlns="http://www.w3.org/2000/svg" role="img" aria-label="DoloPaws mountain paw logo">
  <rect width="512" height="512" rx="108" fill="#2E4034"/>

  <ellipse cx="147" cy="170" rx="14" ry="22" fill="#6FA8BE" transform="rotate(-18 147 170)"/>
  <ellipse cx="216" cy="136" rx="16" ry="23" fill="#6FA8BE" transform="rotate(-5 216 136)"/>
  <ellipse cx="296" cy="130" rx="16" ry="23" fill="#6FA8BE" transform="rotate(5 296 130)"/>
  <ellipse cx="364" cy="162" rx="14" ry="22" fill="#6FA8BE" transform="rotate(18 364 162)"/>

  <path fill="#F7F4EA" d="
    M99 390
    L118 361
    L131 332
    L141 309
    L149 262
    L154 232
    L160 219
    L190 216
    L207 232
    L211 270
    L219 310
    L229 319
    L237 308
    L239 261
    L241 217
    L247 190
    L257 183
    L270 186
    L278 206
    L287 249
    L297 295
    L306 313
    L314 304
    L319 276
    L322 250
    L330 232
    L338 264
    L345 250
    L342 219
    L348 208
    L356 256
    L368 234
    L389 319
    L410 390
    Z"/>
</svg>
