<svg viewBox="0 0 140 140" xmlns="http://www.w3.org/2000/svg" role="img" aria-label="DoloPaws logo: a mountain paw inside a dark green rounded square">
  <rect x="4" y="4" width="132" height="132" rx="25" fill="#2E4034"/>

  <ellipse cx="37" cy="38" rx="6" ry="9" fill="#78AEC2" transform="rotate(-16 37 38)"/>
  <ellipse cx="59" cy="29" rx="6.5" ry="9.5" fill="#78AEC2" transform="rotate(-6 59 29)"/>
  <ellipse cx="82" cy="29" rx="6.5" ry="9.5" fill="#78AEC2" transform="rotate(6 82 29)"/>
  <ellipse cx="104" cy="38" rx="6" ry="9" fill="#78AEC2" transform="rotate(16 104 38)"/>

  <path d="M21,116
           L28,105 L33,91 L37,75 L40,63
           L51,62 L57,67 L61,82 L65,99
           L70,107 L74,100 L78,67 L81,55
           L86,51 L91,54 L95,68 L99,87
           L103,102 L108,94 L112,72
           L116,64 L120,78 L123,94 L128,116 Z"
        fill="#F7F2E8"/>
</svg>
